<svg width="46" height="46" viewBox="0 0 46 46" fill="none" xmlns="http://www.w3.org/2000/svg">
<circle cx="23" cy="23" r="23" fill="#B9B9B9"/>
<line x1="17.5" y1="31.5" x2="28.5" y2="31.5" stroke="#DDE0E6" stroke-width="3" stroke-linecap="round"/>
<path fill-rule="evenodd" clip-rule="evenodd" d="M28.1817 13.4393C27.5959 12.8536 26.6462 12.8536 26.0604 13.4393C25.4746 14.0251 25.4746 14.9749 26.0604 15.5607L27.5014 17.0016L25.852 18.7443C25.2825 19.346 25.3086 20.2954 25.9103 20.8649C26.512 21.4343 27.4614 21.4082 28.0308 20.8065L29.6235 19.1238L31.1398 20.6401C31.7256 21.2258 32.6753 21.2258 33.2611 20.6401C33.8469 20.0543 33.8469 19.1045 33.2611 18.5187L31.6865 16.9441L32.9686 15.5894C33.5381 14.9877 33.512 14.0383 32.9103 13.4689C32.3086 12.8994 31.3593 12.9255 30.7898 13.5272L29.5643 14.822L28.1817 13.4393Z" fill="#DDE0E6"/>
<path fill-rule="evenodd" clip-rule="evenodd" d="M15.7403 13.4393C15.1545 12.8536 14.2048 12.8536 13.619 13.4393C13.0332 14.0251 13.0332 14.9749 13.619 15.5607L15.06 17.0016L13.4106 18.7443C12.8411 19.346 12.8672 20.2954 13.4689 20.8649C14.0706 21.4343 15.02 21.4082 15.5894 20.8065L17.1821 19.1238L18.6984 20.6401C19.2842 21.2258 20.2339 21.2258 20.8197 20.6401C21.4055 20.0543 21.4055 19.1045 20.8197 18.5187L19.2451 16.9441L20.5272 15.5894C21.0967 14.9877 21.0706 14.0383 20.4689 13.4689C19.8672 12.8994 18.9178 12.9255 18.3484 13.5272L17.1229 14.822L15.7403 13.4393Z" fill="#DDE0E6"/>
</svg>
